<svg width="20" height="14" viewBox="0 0 20 14" fill="none" xmlns="http://www.w3.org/2000/svg">
<path fill-rule="evenodd" clip-rule="evenodd" d="M17.9869 7.34398C17.1789 8.79629 16.0065 9.97316 14.622 10.7857L12.9309 9.09527C13.3553 8.50457 13.6039 7.78078 13.6039 7C13.6039 5.0132 11.9879 3.39648 10.0011 3.39648C9.21877 3.39648 8.4965 3.64641 7.90494 4.06992L6.49467 2.65898C7.58772 2.20355 8.77725 1.95793 10.0011 1.95793C13.3124 1.95793 16.373 3.75809 17.9869 6.65621C18.1134 6.88106 18.1134 7.11895 17.9869 7.34398ZM19.2622 7.04152V6.95859C19.2553 6.65922 19.1747 6.36063 19.02 6.0816C17.196 2.80945 13.7411 0.776992 10.0011 0.776992C8.45361 0.776992 6.95549 1.12508 5.60092 1.76441L4.65357 0.817735C4.42209 0.58711 4.04916 0.58711 3.81768 0.817735C3.58834 1.04836 3.58834 1.42215 3.81768 1.65273L4.52068 2.35531C3.07182 3.26406 1.84373 4.53418 0.982129 6.0816C0.656348 6.66543 0.656348 7.33477 0.982129 7.91816C2.80393 11.1903 6.25889 13.2232 10.0011 13.2232C11.5485 13.2232 13.0467 12.8749 14.4012 12.2354L15.3486 13.1827C15.4622 13.2978 15.6143 13.3552 15.7644 13.3552C15.9165 13.3552 16.0665 13.2978 16.1823 13.1827C16.4138 12.9519 16.4138 12.5783 16.1823 12.3475L15.4814 11.6449C16.9303 10.7359 18.1584 9.46559 19.02 7.91813C19.1747 7.63934 19.2553 7.3409 19.2622 7.04152ZM11.2442 9.07836L7.92209 5.75672C7.70346 6.12043 7.57701 6.54586 7.57701 7.00004C7.57701 8.33594 8.66365 9.42258 10.0011 9.42258C10.4554 9.42254 10.8798 9.29676 11.2442 9.07836ZM12.0779 8.24332C12.2965 7.87984 12.423 7.45438 12.423 7C12.423 5.6641 11.3363 4.57746 10.001 4.57746C9.54666 4.57746 9.12014 4.70305 8.75795 4.92168L12.0779 8.24332ZM10.001 12.0425C11.2227 12.0425 12.4122 11.7967 13.5074 11.341L12.095 9.93031C11.5056 10.3541 10.7812 10.6033 10.001 10.6033C8.0142 10.6033 6.39604 8.98727 6.39604 7.00004C6.39604 6.21945 6.64678 5.4959 7.07115 4.905L5.3801 3.21438C3.99338 4.02691 2.82314 5.20356 2.01299 6.65629C1.88869 6.88113 1.88869 7.11902 2.01299 7.34406C3.62693 10.2421 6.68752 12.0425 10.001 12.0425Z" fill="#555370"/>
</svg>
