<svg width="20" height="14" viewBox="0 0 20 14" fill="none" xmlns="http://www.w3.org/2000/svg">
<path fill-rule="evenodd" clip-rule="evenodd" d="M17.9869 7.34387C16.3731 10.242 13.3124 12.0424 10.0011 12.0424C6.68756 12.0424 3.62697 10.242 2.01307 7.34387C1.88877 7.11883 1.88877 6.88094 2.01307 6.65609C3.62697 3.75797 6.68756 1.95781 10.0011 1.95781C13.3124 1.95781 16.373 3.75797 17.9869 6.65609C18.1134 6.88094 18.1134 7.11883 17.9869 7.34387ZM19.0179 6.08148C17.1961 2.80934 13.7411 0.776875 10.0011 0.776875C6.25889 0.776875 2.80393 2.80934 0.982129 6.08148C0.656348 6.66531 0.656348 7.33465 0.982129 7.91805C2.80393 11.1902 6.25889 13.2231 10.0011 13.2231C13.7411 13.2231 17.1961 11.1902 19.0179 7.91805C19.3437 7.33469 19.3437 6.66531 19.0179 6.08148ZM10.0011 9.42242C11.3363 9.42242 12.423 8.33578 12.423 6.99988C12.423 5.66398 11.3363 4.57734 10.0011 4.57734C8.66365 4.57734 7.57701 5.66398 7.57701 6.99988C7.57701 8.33578 8.66369 9.42242 10.0011 9.42242ZM10.0011 3.39641C8.01209 3.39641 6.39607 5.01309 6.39607 6.99992C6.39607 8.98719 8.01213 10.6032 10.0011 10.6032C11.9879 10.6032 13.6039 8.98715 13.6039 6.99992C13.6039 5.01309 11.9879 3.39641 10.0011 3.39641Z" fill="#555370"/>
</svg>
