<svg width="113" height="27" viewBox="0 0 113 27" fill="none" xmlns="http://www.w3.org/2000/svg">
<g clip-path="url(#clip0_75_133)">
<path fill-rule="evenodd" clip-rule="evenodd" d="M6.69629 1.67879V26.8607H0V1.67879H6.69629Z" fill="white"/>
<path fill-rule="evenodd" clip-rule="evenodd" d="M10.0444 1.67879H24.2741C28.8969 1.67879 32.6444 5.4369 32.6444 10.0728C32.6444 14.7086 28.8969 18.4667 24.2741 18.4667H16.7407V26.8607H10.0444V1.67879ZM16.7407 11.7515H24.2741C25.1987 11.7515 25.9481 10.9999 25.9481 10.0728C25.9481 9.14559 25.1987 8.39396 24.2741 8.39396H16.7407V11.7515Z" fill="white"/>
<path fill-rule="evenodd" clip-rule="evenodd" d="M57.7556 1.67879V14.6894C57.7556 17.7027 60.1914 20.1455 63.1963 20.1455C66.2012 20.1455 68.6371 17.7027 68.6371 14.6894V1.67879H75.3336V14.6894C75.3336 21.4114 69.8995 26.8607 63.1963 26.8607C56.4932 26.8607 51.0593 21.4114 51.0593 14.6894V1.67879H57.7556Z" fill="white"/>
<path fill-rule="evenodd" clip-rule="evenodd" d="M35.1556 13.4303C35.1556 6.94013 40.4021 1.67879 46.8741 1.67879H48.5481V8.39396H46.8741C44.1004 8.39396 41.8519 10.6488 41.8519 13.4303V14.2697C41.8519 21.2235 36.2305 26.8607 29.2963 26.8607H28.4593V20.1455H29.2963C32.5323 20.1455 35.1556 17.5148 35.1556 14.2697V13.4303Z" fill="white"/>
<path d="M113 2.51819C113 3.90894 111.876 5.03637 110.489 5.03637C109.102 5.03637 107.978 3.90894 107.978 2.51819C107.978 1.12743 109.102 0 110.489 0C111.876 0 113 1.12743 113 2.51819Z" fill="#FF6600"/>
<path d="M82.5234 26.8607L85.7188 13.4425L88.0945 21.5149C89.5107 26.3295 96.3114 26.3295 97.7283 21.5149L100.103 13.4425L103.299 26.8607H110.183L105.159 5.76126C103.964 0.74366 96.9132 0.557879 95.4569 5.5057L92.9114 14.1578L90.3652 5.50571C88.9096 0.557908 81.8581 0.743633 80.6633 5.76126L75.6391 26.8607H82.5234Z" fill="white"/>
</g>
<defs>
<clipPath id="clip0_75_133">
<rect width="113" height="26.7456" fill="white"/>
</clipPath>
</defs>
</svg>
