<svg width="122" height="29" viewBox="0 0 122 29" fill="none" xmlns="http://www.w3.org/2000/svg">
<g clip-path="url(#clip0_18_4018)">
<path fill-rule="evenodd" clip-rule="evenodd" d="M7.22962 1.8125V29H0V1.8125H7.22962Z" fill="black"/>
<path fill-rule="evenodd" clip-rule="evenodd" d="M10.8442 1.8125H26.2072C31.1982 1.8125 35.2442 5.86992 35.2442 10.875C35.2442 15.8801 31.1982 19.9375 26.2072 19.9375H18.0739V29H10.8442V1.8125ZM18.0739 12.6875H26.2072C27.2054 12.6875 28.0146 11.876 28.0146 10.875C28.0146 9.87399 27.2054 9.0625 26.2072 9.0625H18.0739V12.6875Z" fill="black"/>
<path fill-rule="evenodd" clip-rule="evenodd" d="M62.3556 1.8125V15.8594C62.3556 19.1127 64.9855 21.75 68.2296 21.75C71.4738 21.75 74.1038 19.1127 74.1038 15.8594V1.8125H81.3336V15.8594C81.3336 23.1168 75.4668 29 68.2296 29C60.9927 29 55.126 23.1168 55.126 15.8594V1.8125H62.3556Z" fill="black"/>
<path fill-rule="evenodd" clip-rule="evenodd" d="M37.9557 14.5C37.9557 7.49288 43.6201 1.8125 50.6075 1.8125H52.4149V9.0625H50.6075C47.6129 9.0625 45.1853 11.497 45.1853 14.5V15.4062C45.1853 22.9138 39.1163 29 31.6297 29H30.7261V21.75H31.6297C35.1235 21.75 37.9557 18.9098 37.9557 15.4062V14.5Z" fill="black"/>
<path d="M122 2.71875C122 4.22028 120.786 5.4375 119.288 5.4375C117.791 5.4375 116.578 4.22028 116.578 2.71875C116.578 1.21722 117.791 0 119.288 0C120.786 0 122 1.21722 122 2.71875Z" fill="#0097DC"/>
<path d="M89.0962 29L92.5461 14.5131L95.111 23.2285C96.64 28.4266 103.982 28.4266 105.512 23.2285L108.076 14.5131L111.526 29H118.959L113.534 6.22013C112.244 0.802892 104.632 0.602315 103.06 5.94421L100.312 15.2854L97.5626 5.94422C95.991 0.602346 88.3779 0.802864 87.0879 6.22012L81.6636 29H89.0962Z" fill="black"/>
</g>
<defs>
<clipPath id="clip0_18_4018">
<rect width="122" height="29" fill="white"/>
</clipPath>
</defs>
</svg>
