<svg width="18" height="18" viewBox="0 0 18 18" fill="none" xmlns="http://www.w3.org/2000/svg">
<path d="M5.4375 6C5.4375 5.68934 5.68934 5.4375 6 5.4375H9C9.31065 5.4375 9.5625 5.68934 9.5625 6C9.5625 6.31066 9.31065 6.5625 9 6.5625H6C5.68934 6.5625 5.4375 6.31066 5.4375 6Z" fill="#0099CC"/>
<path d="M5.4375 9C5.4375 8.68935 5.68934 8.4375 6 8.4375H12C12.3106 8.4375 12.5625 8.68935 12.5625 9C12.5625 9.31065 12.3106 9.5625 12 9.5625H6C5.68934 9.5625 5.4375 9.31065 5.4375 9Z" fill="#0099CC"/>
<path fill-rule="evenodd" clip-rule="evenodd" d="M7.47483 0.9375H10.5252C11.554 0.9375 12.3605 0.937493 13.0088 0.990458C13.6689 1.04439 14.2142 1.15604 14.7078 1.40753C15.5193 1.82099 16.179 2.48072 16.5925 3.29216C16.844 3.78577 16.9556 4.33109 17.0096 4.99121C17.0625 5.63946 17.0625 6.44603 17.0625 7.47482V8.38815V8.49833C17.0627 9.65978 17.0628 10.3683 16.8883 10.9634C16.475 12.3728 15.3728 13.475 13.9634 13.8883C13.3683 14.0628 12.6598 14.0626 11.4983 14.0625C11.462 14.0625 11.4254 14.0625 11.3882 14.0625H10.9766L10.9313 14.0626C10.2809 14.0667 9.6474 14.2698 9.11573 14.6444L9.07882 14.6707L7.12081 16.0693C5.99242 16.8752 4.50966 15.7113 5.02466 14.4238C5.09387 14.2508 4.96643 14.0625 4.78006 14.0625H4.32875C2.45581 14.0625 0.9375 12.5442 0.9375 10.6712V7.47483C0.9375 6.44604 0.937493 5.63947 0.990458 4.99121C1.04439 4.33109 1.15604 3.78577 1.40753 3.29216C1.82099 2.48072 2.48072 1.82099 3.29216 1.40753C3.78577 1.15604 4.33109 1.04439 4.99121 0.990458C5.63947 0.937493 6.44604 0.9375 7.47483 0.9375ZM5.08281 2.11172C4.49228 2.15997 4.11148 2.25269 3.80291 2.40991C3.20314 2.71551 2.71551 3.20314 2.40991 3.80291C2.25269 4.11148 2.15997 4.49227 2.11172 5.08281C2.06294 5.67991 2.0625 6.44062 2.0625 7.5V10.6712C2.0625 11.9229 3.07713 12.9375 4.32875 12.9375H4.78006C5.76233 12.9375 6.434 13.9296 6.0692 14.8416C5.97148 15.0859 6.25282 15.3067 6.46691 15.1538L8.46765 13.7248C9.18698 13.2179 10.0442 12.9432 10.9241 12.9376L10.9766 12.9375H11.3882C12.6946 12.9375 13.2272 12.9318 13.6469 12.8087C14.6886 12.5033 15.5033 11.6886 15.8087 10.6468C15.9318 10.2272 15.9375 9.69458 15.9375 8.38815V7.5C15.9375 6.44062 15.9371 5.67991 15.8883 5.08281C15.84 4.49227 15.7473 4.11148 15.5901 3.80291C15.2845 3.20314 14.7968 2.71551 14.1971 2.40991C13.8885 2.25269 13.5077 2.15997 12.9172 2.11172C12.3201 2.06293 11.5594 2.0625 10.5 2.0625H7.5C6.44062 2.0625 5.67992 2.06293 5.08281 2.11172Z" fill="#0099CC"/>
</svg>
