<svg width="18" height="18" viewBox="0 0 18 18" fill="none" xmlns="http://www.w3.org/2000/svg">
<path d="M14.0623 7.31222C13.7518 7.31222 13.4998 7.06022 13.4998 6.74972C13.4998 4.44741 11.7068 2.47922 9.41745 2.26885C7.12273 2.05763 4.99339 3.66357 4.57489 5.92538C4.52482 6.19482 4.49951 6.47213 4.49951 6.74972C4.49951 7.06022 4.24751 7.31222 3.93701 7.31222C3.62651 7.31222 3.37451 7.06022 3.37451 6.74972C3.37451 6.4035 3.40601 6.05728 3.46845 5.72063C3.99157 2.89322 6.64826 0.88341 9.52067 1.14835C12.3829 1.4116 14.6248 3.87197 14.6248 6.74972C14.6248 7.0605 14.3731 7.31222 14.0623 7.31222Z" fill="#FF0033"/>
<path d="M14.062 14.0622C13.7515 14.0622 13.4995 13.8102 13.4995 13.4997C13.4995 13.1892 13.7515 12.9372 14.062 12.9372C14.6155 12.9372 14.9575 12.5584 15.0928 12.2037C15.2275 11.851 15.2247 11.3425 14.8121 10.9735C14.5806 10.7665 14.5604 10.4107 14.7679 10.1793C14.9747 9.94781 15.3307 9.92784 15.5619 10.1351C16.2527 10.7527 16.481 11.7225 16.1435 12.6051C15.8055 13.4902 14.9884 14.0622 14.062 14.0622Z" fill="#FF0033"/>
<path d="M14.062 8.60147C13.7515 8.60147 13.4995 8.34947 13.4995 8.03897V6.75C13.4995 6.4395 13.7515 6.1875 14.062 6.1875C14.3725 6.1875 14.6245 6.4395 14.6245 6.75V8.03897C14.6245 8.34947 14.3728 8.60147 14.062 8.60147Z" fill="#FF0033"/>
<path d="M15.1867 11.117C15.0531 11.117 14.9193 11.0697 14.8121 10.9738C13.9779 10.2277 13.4995 9.15806 13.4995 8.03897C13.4995 7.72847 13.7515 7.47647 14.062 7.47647C14.3725 7.47647 14.6245 7.72847 14.6245 8.03897C14.6245 8.83828 14.9662 9.60244 15.5619 10.1354C15.7934 10.3424 15.8136 10.6982 15.6061 10.9297C15.4953 11.0537 15.3414 11.117 15.1867 11.117Z" fill="#FF0033"/>
<path d="M3.93701 8.60147C3.62651 8.60147 3.37451 8.34947 3.37451 8.03897V6.75C3.37451 6.4395 3.62651 6.1875 3.93701 6.1875C4.24751 6.1875 4.49951 6.4395 4.49951 6.75V8.03897C4.49951 8.34947 4.24779 8.60147 3.93701 8.60147Z" fill="#FF0033"/>
<path d="M2.81219 11.117C2.6575 11.117 2.50366 11.0537 2.39284 10.9294C2.18556 10.6979 2.20553 10.3421 2.437 10.1351C3.03269 9.60216 3.37441 8.83829 3.37441 8.0387C3.37441 7.7282 3.62641 7.4762 3.93691 7.4762C4.24741 7.4762 4.49941 7.7282 4.49941 8.0387C4.49941 9.15779 4.021 10.2274 3.18681 10.9735C3.07966 11.0697 2.94578 11.117 2.81219 11.117Z" fill="#FF0033"/>
<path d="M8.99951 16.8747C7.16998 16.8747 5.62451 15.3293 5.62451 13.4997C5.62451 13.1892 5.87651 12.9372 6.18701 12.9372C6.49751 12.9372 6.74951 13.1892 6.74951 13.4997C6.74951 14.7192 7.77973 15.7497 8.99951 15.7497C10.2193 15.7497 11.2495 14.7192 11.2495 13.4997C11.2495 13.1892 11.5015 12.9372 11.812 12.9372C12.1225 12.9372 12.3745 13.1892 12.3745 13.4997C12.3745 15.3293 10.829 16.8747 8.99951 16.8747Z" fill="#FF0033"/>
<path d="M3.9371 14.0622C3.01067 14.0622 2.1942 13.4916 1.85698 12.6084C1.51892 11.7236 1.74673 10.7528 2.4372 10.1354C2.66895 9.92841 3.02445 9.9481 3.23145 10.1798C3.43845 10.4116 3.41848 10.7668 3.18701 10.9741C2.7747 11.3428 2.77245 11.853 2.90773 12.2074C3.04245 12.5603 3.38389 12.9378 3.9371 12.9378C4.2476 12.9378 4.4996 13.1898 4.4996 13.5003C4.4996 13.8108 4.24789 14.0622 3.9371 14.0622Z" fill="#FF0033"/>
<path d="M14.062 14.0622H3.93701C3.62651 14.0622 3.37451 13.8102 3.37451 13.4997C3.37451 13.1892 3.62651 12.9372 3.93701 12.9372H14.062C14.3725 12.9372 14.6245 13.1892 14.6245 13.4997C14.6245 13.8102 14.3728 14.0622 14.062 14.0622Z" fill="#FF0033"/>
</svg>
